<svg width="1024" height="1024" viewBox="0 0 1024 1024" xmlns="http://www.w3.org/2000/svg">
  <defs>
    <radialGradient id="warm" cx="50%" cy="56%" r="38%">
      <stop offset="0%" stop-color="#e6b54e" stop-opacity="0.28"/>
      <stop offset="100%" stop-color="#e6b54e" stop-opacity="0"/>
    </radialGradient>
    <linearGradient id="gold" gradientUnits="userSpaceOnUse" x1="392" y1="196" x2="612" y2="648">
      <stop offset="0%" stop-color="#fff8de"/>
      <stop offset="32%" stop-color="#f0d184"/>
      <stop offset="64%" stop-color="#c79a45"/>
      <stop offset="100%" stop-color="#7c581d"/>
    </linearGradient>
  </defs>

  <g transform="translate(512,512) scale(0.82) translate(-512,-414)">
    <ellipse cx="512" cy="510" rx="300" ry="230" fill="url(#warm)"/>
    <polygon points="512,200 546,250 512,300 478,250" fill="url(#gold)"/>
    <polygon points="362,425 512,330 662,425 662,471 512,376 362,471" fill="url(#gold)"/>
    <polygon points="362,503 512,408 662,503 662,549 512,454 362,549" fill="url(#gold)"/>
    <polygon points="362,581 512,486 662,581 662,627 512,532 362,627" fill="url(#gold)"/>
  </g>
</svg>
