<svg width="1024" height="1024" viewBox="0 0 1024 1024" xmlns="http://www.w3.org/2000/svg">
  <defs>
    <radialGradient id="bg" cx="50%" cy="36%" r="80%">
      <stop offset="0%" stop-color="#202024"/>
      <stop offset="60%" stop-color="#121214"/>
      <stop offset="100%" stop-color="#08080a"/>
    </radialGradient>
    <radialGradient id="warm" cx="50%" cy="56%" r="38%">
      <stop offset="0%" stop-color="#e6b54e" stop-opacity="0.28"/>
      <stop offset="100%" stop-color="#e6b54e" stop-opacity="0"/>
    </radialGradient>
    <linearGradient id="gold" gradientUnits="userSpaceOnUse" x1="392" y1="196" x2="612" y2="648">
      <stop offset="0%" stop-color="#fff8de"/>
      <stop offset="32%" stop-color="#f0d184"/>
      <stop offset="64%" stop-color="#c79a45"/>
      <stop offset="100%" stop-color="#7c581d"/>
    </linearGradient>
  </defs>

  <rect width="1024" height="1024" fill="url(#bg)"/>
  <!-- ánh vàng ấm hắt lên từ dưới -->
  <ellipse cx="512" cy="560" rx="300" ry="240" fill="url(#warm)"/>

  <!-- Kim cương đỉnh -->
  <polygon points="512,200 546,250 512,300 478,250" fill="url(#gold)"/>

  <!-- 3 chevron hướng lên -->
  <!-- chevron 1 -->
  <polygon points="362,425 512,330 662,425 662,471 512,376 362,471" fill="url(#gold)"/>
  <!-- chevron 2 -->
  <polygon points="362,503 512,408 662,503 662,549 512,454 362,549" fill="url(#gold)"/>
  <!-- chevron 3 -->
  <polygon points="362,581 512,486 662,581 662,627 512,532 362,627" fill="url(#gold)"/>
</svg>
